<svg xmlns="http://www.w3.org/2000/svg" width="192" height="32" viewBox="0 0 192 32" shape-rendering="crispEdges"><g transform="translate(0 0)"><rect x="9" y="12" width="14" height="16" fill="#51372f"/><rect x="11" y="13" width="10" height="13" fill="#9b744c"/><rect x="12" y="14" width="2" height="10" fill="#c5a15e"/><rect x="18" y="20" width="2" height="6" fill="#6c533f"/><rect x="2" y="17" width="9" height="4" fill="#51372f"/><rect x="3" y="18" width="7" height="2" fill="#9b744c"/><rect x="2" y="12" width="3" height="6" fill="#51372f"/><rect x="21" y="17" width="9" height="4" fill="#51372f"/><rect x="22" y="18" width="7" height="2" fill="#9b744c"/><rect x="27" y="12" width="3" height="6" fill="#51372f"/><rect x="5" y="26" width="10" height="4" fill="#51372f"/><rect x="18" y="26" width="10" height="4" fill="#51372f"/><rect x="7" y="27" width="7" height="2" fill="#9b744c"/><rect x="19" y="27" width="7" height="2" fill="#9b744c"/><rect x="4" y="5" width="24" height="10" fill="#466f50"/><rect x="8" y="1" width="16" height="6" fill="#466f50"/><rect x="2" y="8" width="28" height="5" fill="#466f50"/><rect x="5" y="6" width="22" height="6" fill="#71935f"/><rect x="9" y="2" width="14" height="5" fill="#8eac70"/><rect x="7" y="6" width="8" height="3" fill="#a7b686"/><rect x="12" y="16" width="2" height="3" fill="#fff0c7"/><rect x="19" y="16" width="2" height="3" fill="#fff0c7"/><rect x="12" y="17" width="1" height="2" fill="#51372f"/><rect x="19" y="17" width="1" height="2" fill="#51372f"/><rect x="15" y="21" width="4" height="1" fill="#51372f"/></g><g transform="translate(32 0)"><rect x="9" y="11" width="14" height="16" fill="#51372f"/><rect x="11" y="12" width="10" height="13" fill="#9b744c"/><rect x="12" y="13" width="2" height="10" fill="#c5a15e"/><rect x="18" y="19" width="2" height="6" fill="#6c533f"/><rect x="2" y="17" width="9" height="4" fill="#51372f"/><rect x="3" y="18" width="7" height="2" fill="#9b744c"/><rect x="2" y="12" width="3" height="6" fill="#51372f"/><rect x="21" y="15" width="9" height="4" fill="#51372f"/><rect x="22" y="16" width="7" height="2" fill="#9b744c"/><rect x="27" y="10" width="3" height="6" fill="#51372f"/><rect x="5" y="27" width="10" height="4" fill="#51372f"/><rect x="18" y="25" width="10" height="4" fill="#51372f"/><rect x="7" y="28" width="7" height="2" fill="#9b744c"/><rect x="19" y="26" width="7" height="2" fill="#9b744c"/><rect x="4" y="4" width="24" height="10" fill="#466f50"/><rect x="8" y="0" width="16" height="6" fill="#466f50"/><rect x="2" y="7" width="28" height="5" fill="#466f50"/><rect x="5" y="5" width="22" height="6" fill="#71935f"/><rect x="9" y="1" width="14" height="5" fill="#8eac70"/><rect x="7" y="5" width="8" height="3" fill="#a7b686"/><rect x="12" y="15" width="2" height="3" fill="#fff0c7"/><rect x="19" y="15" width="2" height="3" fill="#fff0c7"/><rect x="12" y="16" width="1" height="2" fill="#51372f"/><rect x="19" y="16" width="1" height="2" fill="#51372f"/><rect x="15" y="20" width="4" height="1" fill="#51372f"/></g><g transform="translate(64 0)"><rect x="9" y="12" width="14" height="16" fill="#51372f"/><rect x="11" y="13" width="10" height="13" fill="#9b744c"/><rect x="12" y="14" width="2" height="10" fill="#c5a15e"/><rect x="18" y="20" width="2" height="6" fill="#6c533f"/><rect x="2" y="18" width="9" height="4" fill="#51372f"/><rect x="3" y="19" width="7" height="2" fill="#9b744c"/><rect x="2" y="13" width="3" height="6" fill="#51372f"/><rect x="21" y="16" width="9" height="4" fill="#51372f"/><rect x="22" y="17" width="7" height="2" fill="#9b744c"/><rect x="27" y="11" width="3" height="6" fill="#51372f"/><rect x="5" y="27" width="10" height="4" fill="#51372f"/><rect x="18" y="25" width="10" height="4" fill="#51372f"/><rect x="7" y="28" width="7" height="2" fill="#9b744c"/><rect x="19" y="26" width="7" height="2" fill="#9b744c"/><rect x="4" y="5" width="24" height="10" fill="#466f50"/><rect x="8" y="1" width="16" height="6" fill="#466f50"/><rect x="2" y="8" width="28" height="5" fill="#466f50"/><rect x="5" y="6" width="22" height="6" fill="#71935f"/><rect x="9" y="2" width="14" height="5" fill="#8eac70"/><rect x="7" y="6" width="8" height="3" fill="#a7b686"/><rect x="12" y="16" width="2" height="3" fill="#fff0c7"/><rect x="19" y="16" width="2" height="3" fill="#fff0c7"/><rect x="12" y="17" width="1" height="2" fill="#51372f"/><rect x="19" y="17" width="1" height="2" fill="#51372f"/><rect x="15" y="21" width="4" height="1" fill="#51372f"/></g><g transform="translate(96 0)"><rect x="9" y="13" width="14" height="16" fill="#51372f"/><rect x="11" y="14" width="10" height="13" fill="#9b744c"/><rect x="12" y="15" width="2" height="10" fill="#c5a15e"/><rect x="18" y="21" width="2" height="6" fill="#6c533f"/><rect x="2" y="18" width="9" height="4" fill="#51372f"/><rect x="3" y="19" width="7" height="2" fill="#9b744c"/><rect x="2" y="13" width="3" height="6" fill="#51372f"/><rect x="21" y="18" width="9" height="4" fill="#51372f"/><rect x="22" y="19" width="7" height="2" fill="#9b744c"/><rect x="27" y="13" width="3" height="6" fill="#51372f"/><rect x="5" y="26" width="10" height="4" fill="#51372f"/><rect x="18" y="26" width="10" height="4" fill="#51372f"/><rect x="7" y="27" width="7" height="2" fill="#9b744c"/><rect x="19" y="27" width="7" height="2" fill="#9b744c"/><rect x="4" y="6" width="24" height="10" fill="#466f50"/><rect x="8" y="2" width="16" height="6" fill="#466f50"/><rect x="2" y="9" width="28" height="5" fill="#466f50"/><rect x="5" y="7" width="22" height="6" fill="#71935f"/><rect x="9" y="3" width="14" height="5" fill="#8eac70"/><rect x="7" y="7" width="8" height="3" fill="#a7b686"/><rect x="12" y="17" width="2" height="3" fill="#fff0c7"/><rect x="19" y="17" width="2" height="3" fill="#fff0c7"/><rect x="12" y="18" width="1" height="2" fill="#51372f"/><rect x="19" y="18" width="1" height="2" fill="#51372f"/><rect x="15" y="22" width="4" height="1" fill="#51372f"/></g><g transform="translate(128 0)"><rect x="9" y="12" width="14" height="16" fill="#51372f"/><rect x="11" y="13" width="10" height="13" fill="#9b744c"/><rect x="12" y="14" width="2" height="10" fill="#c5a15e"/><rect x="18" y="20" width="2" height="6" fill="#6c533f"/><rect x="2" y="16" width="9" height="4" fill="#51372f"/><rect x="3" y="17" width="7" height="2" fill="#9b744c"/><rect x="2" y="11" width="3" height="6" fill="#51372f"/><rect x="21" y="18" width="9" height="4" fill="#51372f"/><rect x="22" y="19" width="7" height="2" fill="#9b744c"/><rect x="27" y="13" width="3" height="6" fill="#51372f"/><rect x="5" y="25" width="10" height="4" fill="#51372f"/><rect x="18" y="27" width="10" height="4" fill="#51372f"/><rect x="7" y="26" width="7" height="2" fill="#9b744c"/><rect x="19" y="28" width="7" height="2" fill="#9b744c"/><rect x="4" y="5" width="24" height="10" fill="#466f50"/><rect x="8" y="1" width="16" height="6" fill="#466f50"/><rect x="2" y="8" width="28" height="5" fill="#466f50"/><rect x="5" y="6" width="22" height="6" fill="#71935f"/><rect x="9" y="2" width="14" height="5" fill="#8eac70"/><rect x="7" y="6" width="8" height="3" fill="#a7b686"/><rect x="12" y="16" width="2" height="3" fill="#fff0c7"/><rect x="19" y="16" width="2" height="3" fill="#fff0c7"/><rect x="12" y="17" width="1" height="2" fill="#51372f"/><rect x="19" y="17" width="1" height="2" fill="#51372f"/><rect x="15" y="21" width="4" height="1" fill="#51372f"/></g><g transform="translate(160 0)"><rect x="9" y="11" width="14" height="16" fill="#51372f"/><rect x="11" y="12" width="10" height="13" fill="#9b744c"/><rect x="12" y="13" width="2" height="10" fill="#c5a15e"/><rect x="18" y="19" width="2" height="6" fill="#6c533f"/><rect x="2" y="15" width="9" height="4" fill="#51372f"/><rect x="3" y="16" width="7" height="2" fill="#9b744c"/><rect x="2" y="10" width="3" height="6" fill="#51372f"/><rect x="21" y="17" width="9" height="4" fill="#51372f"/><rect x="22" y="18" width="7" height="2" fill="#9b744c"/><rect x="27" y="12" width="3" height="6" fill="#51372f"/><rect x="5" y="25" width="10" height="4" fill="#51372f"/><rect x="18" y="27" width="10" height="4" fill="#51372f"/><rect x="7" y="26" width="7" height="2" fill="#9b744c"/><rect x="19" y="28" width="7" height="2" fill="#9b744c"/><rect x="4" y="4" width="24" height="10" fill="#466f50"/><rect x="8" y="0" width="16" height="6" fill="#466f50"/><rect x="2" y="7" width="28" height="5" fill="#466f50"/><rect x="5" y="5" width="22" height="6" fill="#71935f"/><rect x="9" y="1" width="14" height="5" fill="#8eac70"/><rect x="7" y="5" width="8" height="3" fill="#a7b686"/><rect x="12" y="15" width="2" height="3" fill="#fff0c7"/><rect x="19" y="15" width="2" height="3" fill="#fff0c7"/><rect x="12" y="16" width="1" height="2" fill="#51372f"/><rect x="19" y="16" width="1" height="2" fill="#51372f"/><rect x="15" y="20" width="4" height="1" fill="#51372f"/></g></svg>
