<svg xmlns="http://www.w3.org/2000/svg" width="192" height="32" viewBox="0 0 192 32" shape-rendering="crispEdges"><g transform="translate(0 0)"><rect x="10" y="4" width="12" height="3" fill="#41483d"/><rect x="7" y="7" width="18" height="10" fill="#41483d"/><rect x="9" y="8" width="14" height="8" fill="#7d9661"/><rect x="11" y="9" width="10" height="7" fill="#e7dbc3"/><rect x="12" y="11" width="2" height="2" fill="#41483d"/><rect x="19" y="11" width="2" height="2" fill="#41483d"/><rect x="13" y="5" width="7" height="3" fill="#a7b686"/><rect x="8" y="17" width="16" height="10" fill="#41483d"/><rect x="10" y="18" width="12" height="8" fill="#7d9661"/><rect x="12" y="19" width="3" height="6" fill="#c5a15e"/><rect x="16" y="22" width="6" height="2" fill="#b58b55"/><rect x="5" y="18" width="5" height="6" fill="#7d9661"/><rect x="22" y="18" width="5" height="6" fill="#cbb18d"/><rect x="27" y="11" width="2" height="4" fill="#51372f"/><rect x="29" y="15" width="2" height="10" fill="#51372f"/><rect x="27" y="25" width="2" height="3" fill="#51372f"/><rect x="28" y="15" width="1" height="10" fill="#c5a15e"/><rect x="26" y="13" width="1" height="13" fill="#e7dbc3"/><rect x="23" y="19" width="8" height="1" fill="#c5a15e"/><rect x="29" y="18" width="2" height="3" fill="#e7dbc3"/><rect x="10" y="26" width="4" height="4" fill="#51372f"/><rect x="19" y="26" width="4" height="4" fill="#51372f"/></g><g transform="translate(32 0)"><rect x="10" y="3" width="12" height="3" fill="#41483d"/><rect x="7" y="6" width="18" height="10" fill="#41483d"/><rect x="9" y="7" width="14" height="8" fill="#7d9661"/><rect x="11" y="8" width="10" height="7" fill="#e7dbc3"/><rect x="12" y="10" width="2" height="2" fill="#41483d"/><rect x="19" y="10" width="2" height="2" fill="#41483d"/><rect x="13" y="4" width="7" height="3" fill="#a7b686"/><rect x="8" y="16" width="16" height="10" fill="#41483d"/><rect x="10" y="17" width="12" height="8" fill="#7d9661"/><rect x="12" y="18" width="3" height="6" fill="#c5a15e"/><rect x="16" y="21" width="6" height="2" fill="#b58b55"/><rect x="5" y="17" width="5" height="6" fill="#7d9661"/><rect x="22" y="17" width="5" height="6" fill="#cbb18d"/><rect x="27" y="10" width="2" height="4" fill="#51372f"/><rect x="29" y="14" width="2" height="10" fill="#51372f"/><rect x="27" y="24" width="2" height="3" fill="#51372f"/><rect x="28" y="14" width="1" height="10" fill="#c5a15e"/><rect x="26" y="12" width="1" height="13" fill="#e7dbc3"/><rect x="23" y="18" width="8" height="1" fill="#c5a15e"/><rect x="29" y="17" width="2" height="3" fill="#e7dbc3"/><rect x="11" y="26" width="4" height="4" fill="#51372f"/><rect x="18" y="26" width="4" height="4" fill="#51372f"/></g><g transform="translate(64 0)"><rect x="10" y="4" width="12" height="3" fill="#41483d"/><rect x="7" y="7" width="18" height="10" fill="#41483d"/><rect x="9" y="8" width="14" height="8" fill="#7d9661"/><rect x="11" y="9" width="10" height="7" fill="#e7dbc3"/><rect x="12" y="11" width="2" height="2" fill="#41483d"/><rect x="19" y="11" width="2" height="2" fill="#41483d"/><rect x="13" y="5" width="7" height="3" fill="#a7b686"/><rect x="8" y="17" width="16" height="10" fill="#41483d"/><rect x="10" y="18" width="12" height="8" fill="#7d9661"/><rect x="12" y="19" width="3" height="6" fill="#c5a15e"/><rect x="16" y="22" width="6" height="2" fill="#b58b55"/><rect x="5" y="18" width="5" height="6" fill="#7d9661"/><rect x="22" y="18" width="5" height="6" fill="#cbb18d"/><rect x="27" y="11" width="2" height="4" fill="#51372f"/><rect x="29" y="15" width="2" height="10" fill="#51372f"/><rect x="27" y="25" width="2" height="3" fill="#51372f"/><rect x="28" y="15" width="1" height="10" fill="#c5a15e"/><rect x="26" y="13" width="1" height="13" fill="#e7dbc3"/><rect x="23" y="19" width="8" height="1" fill="#c5a15e"/><rect x="29" y="18" width="2" height="3" fill="#e7dbc3"/><rect x="11" y="26" width="4" height="4" fill="#51372f"/><rect x="18" y="26" width="4" height="4" fill="#51372f"/></g><g transform="translate(96 0)"><rect x="10" y="5" width="12" height="3" fill="#41483d"/><rect x="7" y="8" width="18" height="10" fill="#41483d"/><rect x="9" y="9" width="14" height="8" fill="#7d9661"/><rect x="11" y="10" width="10" height="7" fill="#e7dbc3"/><rect x="12" y="12" width="2" height="2" fill="#41483d"/><rect x="19" y="12" width="2" height="2" fill="#41483d"/><rect x="13" y="6" width="7" height="3" fill="#a7b686"/><rect x="8" y="18" width="16" height="10" fill="#41483d"/><rect x="10" y="19" width="12" height="8" fill="#7d9661"/><rect x="12" y="20" width="3" height="6" fill="#c5a15e"/><rect x="16" y="23" width="6" height="2" fill="#b58b55"/><rect x="5" y="19" width="5" height="6" fill="#7d9661"/><rect x="22" y="19" width="5" height="6" fill="#cbb18d"/><rect x="27" y="12" width="2" height="4" fill="#51372f"/><rect x="29" y="16" width="2" height="10" fill="#51372f"/><rect x="27" y="26" width="2" height="3" fill="#51372f"/><rect x="28" y="16" width="1" height="10" fill="#c5a15e"/><rect x="26" y="14" width="1" height="13" fill="#e7dbc3"/><rect x="23" y="20" width="8" height="1" fill="#c5a15e"/><rect x="29" y="19" width="2" height="3" fill="#e7dbc3"/><rect x="10" y="26" width="4" height="4" fill="#51372f"/><rect x="19" y="26" width="4" height="4" fill="#51372f"/></g><g transform="translate(128 0)"><rect x="10" y="4" width="12" height="3" fill="#41483d"/><rect x="7" y="7" width="18" height="10" fill="#41483d"/><rect x="9" y="8" width="14" height="8" fill="#7d9661"/><rect x="11" y="9" width="10" height="7" fill="#e7dbc3"/><rect x="12" y="11" width="2" height="2" fill="#41483d"/><rect x="19" y="11" width="2" height="2" fill="#41483d"/><rect x="13" y="5" width="7" height="3" fill="#a7b686"/><rect x="8" y="17" width="16" height="10" fill="#41483d"/><rect x="10" y="18" width="12" height="8" fill="#7d9661"/><rect x="12" y="19" width="3" height="6" fill="#c5a15e"/><rect x="16" y="22" width="6" height="2" fill="#b58b55"/><rect x="5" y="18" width="5" height="6" fill="#7d9661"/><rect x="22" y="18" width="5" height="6" fill="#cbb18d"/><rect x="27" y="11" width="2" height="4" fill="#51372f"/><rect x="29" y="15" width="2" height="10" fill="#51372f"/><rect x="27" y="25" width="2" height="3" fill="#51372f"/><rect x="28" y="15" width="1" height="10" fill="#c5a15e"/><rect x="26" y="13" width="1" height="13" fill="#e7dbc3"/><rect x="23" y="19" width="8" height="1" fill="#c5a15e"/><rect x="29" y="18" width="2" height="3" fill="#e7dbc3"/><rect x="9" y="26" width="4" height="4" fill="#51372f"/><rect x="20" y="26" width="4" height="4" fill="#51372f"/></g><g transform="translate(160 0)"><rect x="10" y="3" width="12" height="3" fill="#41483d"/><rect x="7" y="6" width="18" height="10" fill="#41483d"/><rect x="9" y="7" width="14" height="8" fill="#7d9661"/><rect x="11" y="8" width="10" height="7" fill="#e7dbc3"/><rect x="12" y="10" width="2" height="2" fill="#41483d"/><rect x="19" y="10" width="2" height="2" fill="#41483d"/><rect x="13" y="4" width="7" height="3" fill="#a7b686"/><rect x="8" y="16" width="16" height="10" fill="#41483d"/><rect x="10" y="17" width="12" height="8" fill="#7d9661"/><rect x="12" y="18" width="3" height="6" fill="#c5a15e"/><rect x="16" y="21" width="6" height="2" fill="#b58b55"/><rect x="5" y="17" width="5" height="6" fill="#7d9661"/><rect x="22" y="17" width="5" height="6" fill="#cbb18d"/><rect x="27" y="10" width="2" height="4" fill="#51372f"/><rect x="29" y="14" width="2" height="10" fill="#51372f"/><rect x="27" y="24" width="2" height="3" fill="#51372f"/><rect x="28" y="14" width="1" height="10" fill="#c5a15e"/><rect x="26" y="12" width="1" height="13" fill="#e7dbc3"/><rect x="23" y="18" width="8" height="1" fill="#c5a15e"/><rect x="29" y="17" width="2" height="3" fill="#e7dbc3"/><rect x="9" y="26" width="4" height="4" fill="#51372f"/><rect x="20" y="26" width="4" height="4" fill="#51372f"/></g></svg>
