<svg xmlns="http://www.w3.org/2000/svg" width="192" height="32" viewBox="0 0 192 32" shape-rendering="crispEdges"><g transform="translate(0 0)"><rect x="10" y="25" width="5" height="4" fill="#41483d"/><rect x="18" y="25" width="5" height="4" fill="#41483d"/><rect x="8" y="16" width="16" height="11" fill="#41483d"/><rect x="7" y="18" width="18" height="6" fill="#41483d"/><rect x="10" y="17" width="12" height="8" fill="#69725b"/><rect x="11" y="17" width="10" height="5" fill="#7d9661"/><rect x="10" y="24" width="12" height="2" fill="#c5a15e"/><rect x="14" y="20" width="5" height="3" fill="#e7dbc3"/><rect x="7" y="18" width="3" height="5" fill="#cbb18d"/><rect x="22" y="18" width="3" height="5" fill="#cbb18d"/><rect x="10" y="4" width="12" height="2" fill="#41483d"/><rect x="8" y="6" width="16" height="9" fill="#41483d"/><rect x="10" y="15" width="12" height="2" fill="#41483d"/><rect x="10" y="7" width="12" height="8" fill="#cbb18d"/><rect x="11" y="8" width="10" height="6" fill="#e7dbc3"/><rect x="12" y="10" width="2" height="3" fill="#41483d"/><rect x="19" y="10" width="2" height="3" fill="#41483d"/><rect x="12" y="10" width="1" height="1" fill="#fff5d7"/><rect x="19" y="10" width="1" height="1" fill="#fff5d7"/><rect x="15" y="14" width="3" height="1" fill="#69725b"/><rect x="10" y="13" width="2" height="1" fill="#cbb18d"/><rect x="21" y="13" width="2" height="1" fill="#cbb18d"/><rect x="9" y="5" width="14" height="3" fill="#69725b"/><rect x="10" y="3" width="12" height="3" fill="#7d9661"/><rect x="8" y="8" width="3" height="2" fill="#69725b"/><rect x="19" y="6" width="4" height="4" fill="#69725b"/><rect x="26" y="9" width="3" height="14" fill="#41483d"/><rect x="27" y="10" width="1" height="10" fill="#e7dbc3"/><rect x="24" y="22" width="7" height="2" fill="#c5a15e"/><rect x="27" y="24" width="2" height="4" fill="#41483d"/><rect x="6" y="23" width="6" height="2" fill="#69725b"/><rect x="24" y="8" width="7" height="5" fill="#41483d"/><rect x="25" y="9" width="5" height="3" fill="#c5a15e"/><rect x="12" y="17" width="8" height="3" fill="#a7b686"/></g><g transform="translate(32 0)"><rect x="10" y="26" width="5" height="4" fill="#41483d"/><rect x="18" y="24" width="5" height="4" fill="#41483d"/><rect x="8" y="15" width="16" height="11" fill="#41483d"/><rect x="7" y="17" width="18" height="6" fill="#41483d"/><rect x="10" y="16" width="12" height="8" fill="#69725b"/><rect x="11" y="16" width="10" height="5" fill="#7d9661"/><rect x="10" y="23" width="12" height="2" fill="#c5a15e"/><rect x="14" y="19" width="5" height="3" fill="#e7dbc3"/><rect x="7" y="17" width="3" height="5" fill="#cbb18d"/><rect x="22" y="17" width="3" height="5" fill="#cbb18d"/><rect x="10" y="3" width="12" height="2" fill="#41483d"/><rect x="8" y="5" width="16" height="9" fill="#41483d"/><rect x="10" y="14" width="12" height="2" fill="#41483d"/><rect x="10" y="6" width="12" height="8" fill="#cbb18d"/><rect x="11" y="7" width="10" height="6" fill="#e7dbc3"/><rect x="12" y="9" width="2" height="3" fill="#41483d"/><rect x="19" y="9" width="2" height="3" fill="#41483d"/><rect x="12" y="9" width="1" height="1" fill="#fff5d7"/><rect x="19" y="9" width="1" height="1" fill="#fff5d7"/><rect x="15" y="13" width="3" height="1" fill="#69725b"/><rect x="10" y="12" width="2" height="1" fill="#cbb18d"/><rect x="21" y="12" width="2" height="1" fill="#cbb18d"/><rect x="9" y="4" width="14" height="3" fill="#69725b"/><rect x="10" y="2" width="12" height="3" fill="#7d9661"/><rect x="8" y="7" width="3" height="2" fill="#69725b"/><rect x="19" y="5" width="4" height="4" fill="#69725b"/><rect x="26" y="8" width="3" height="14" fill="#41483d"/><rect x="27" y="9" width="1" height="10" fill="#e7dbc3"/><rect x="24" y="21" width="7" height="2" fill="#c5a15e"/><rect x="27" y="23" width="2" height="4" fill="#41483d"/><rect x="6" y="22" width="6" height="2" fill="#69725b"/><rect x="24" y="7" width="7" height="5" fill="#41483d"/><rect x="25" y="8" width="5" height="3" fill="#c5a15e"/><rect x="12" y="16" width="8" height="3" fill="#a7b686"/></g><g transform="translate(64 0)"><rect x="10" y="26" width="5" height="4" fill="#41483d"/><rect x="18" y="24" width="5" height="4" fill="#41483d"/><rect x="8" y="16" width="16" height="11" fill="#41483d"/><rect x="7" y="18" width="18" height="6" fill="#41483d"/><rect x="10" y="17" width="12" height="8" fill="#69725b"/><rect x="11" y="17" width="10" height="5" fill="#7d9661"/><rect x="10" y="24" width="12" height="2" fill="#c5a15e"/><rect x="14" y="20" width="5" height="3" fill="#e7dbc3"/><rect x="7" y="18" width="3" height="5" fill="#cbb18d"/><rect x="22" y="18" width="3" height="5" fill="#cbb18d"/><rect x="10" y="4" width="12" height="2" fill="#41483d"/><rect x="8" y="6" width="16" height="9" fill="#41483d"/><rect x="10" y="15" width="12" height="2" fill="#41483d"/><rect x="10" y="7" width="12" height="8" fill="#cbb18d"/><rect x="11" y="8" width="10" height="6" fill="#e7dbc3"/><rect x="12" y="10" width="2" height="3" fill="#41483d"/><rect x="19" y="10" width="2" height="3" fill="#41483d"/><rect x="12" y="10" width="1" height="1" fill="#fff5d7"/><rect x="19" y="10" width="1" height="1" fill="#fff5d7"/><rect x="15" y="14" width="3" height="1" fill="#69725b"/><rect x="10" y="13" width="2" height="1" fill="#cbb18d"/><rect x="21" y="13" width="2" height="1" fill="#cbb18d"/><rect x="9" y="5" width="14" height="3" fill="#69725b"/><rect x="10" y="3" width="12" height="3" fill="#7d9661"/><rect x="8" y="8" width="3" height="2" fill="#69725b"/><rect x="19" y="6" width="4" height="4" fill="#69725b"/><rect x="26" y="9" width="3" height="14" fill="#41483d"/><rect x="27" y="10" width="1" height="10" fill="#e7dbc3"/><rect x="24" y="22" width="7" height="2" fill="#c5a15e"/><rect x="27" y="24" width="2" height="4" fill="#41483d"/><rect x="6" y="23" width="6" height="2" fill="#69725b"/><rect x="24" y="8" width="7" height="5" fill="#41483d"/><rect x="25" y="9" width="5" height="3" fill="#c5a15e"/><rect x="12" y="17" width="8" height="3" fill="#a7b686"/></g><g transform="translate(96 0)"><rect x="10" y="25" width="5" height="4" fill="#41483d"/><rect x="18" y="25" width="5" height="4" fill="#41483d"/><rect x="8" y="17" width="16" height="11" fill="#41483d"/><rect x="7" y="19" width="18" height="6" fill="#41483d"/><rect x="10" y="18" width="12" height="8" fill="#69725b"/><rect x="11" y="18" width="10" height="5" fill="#7d9661"/><rect x="10" y="25" width="12" height="2" fill="#c5a15e"/><rect x="14" y="21" width="5" height="3" fill="#e7dbc3"/><rect x="7" y="19" width="3" height="5" fill="#cbb18d"/><rect x="22" y="19" width="3" height="5" fill="#cbb18d"/><rect x="10" y="5" width="12" height="2" fill="#41483d"/><rect x="8" y="7" width="16" height="9" fill="#41483d"/><rect x="10" y="16" width="12" height="2" fill="#41483d"/><rect x="10" y="8" width="12" height="8" fill="#cbb18d"/><rect x="11" y="9" width="10" height="6" fill="#e7dbc3"/><rect x="12" y="11" width="2" height="3" fill="#41483d"/><rect x="19" y="11" width="2" height="3" fill="#41483d"/><rect x="12" y="11" width="1" height="1" fill="#fff5d7"/><rect x="19" y="11" width="1" height="1" fill="#fff5d7"/><rect x="15" y="15" width="3" height="1" fill="#69725b"/><rect x="10" y="14" width="2" height="1" fill="#cbb18d"/><rect x="21" y="14" width="2" height="1" fill="#cbb18d"/><rect x="9" y="6" width="14" height="3" fill="#69725b"/><rect x="10" y="4" width="12" height="3" fill="#7d9661"/><rect x="8" y="9" width="3" height="2" fill="#69725b"/><rect x="19" y="7" width="4" height="4" fill="#69725b"/><rect x="26" y="10" width="3" height="14" fill="#41483d"/><rect x="27" y="11" width="1" height="10" fill="#e7dbc3"/><rect x="24" y="23" width="7" height="2" fill="#c5a15e"/><rect x="27" y="25" width="2" height="4" fill="#41483d"/><rect x="6" y="24" width="6" height="2" fill="#69725b"/><rect x="24" y="9" width="7" height="5" fill="#41483d"/><rect x="25" y="10" width="5" height="3" fill="#c5a15e"/><rect x="12" y="18" width="8" height="3" fill="#a7b686"/></g><g transform="translate(128 0)"><rect x="10" y="24" width="5" height="4" fill="#41483d"/><rect x="18" y="26" width="5" height="4" fill="#41483d"/><rect x="8" y="16" width="16" height="11" fill="#41483d"/><rect x="7" y="18" width="18" height="6" fill="#41483d"/><rect x="10" y="17" width="12" height="8" fill="#69725b"/><rect x="11" y="17" width="10" height="5" fill="#7d9661"/><rect x="10" y="24" width="12" height="2" fill="#c5a15e"/><rect x="14" y="20" width="5" height="3" fill="#e7dbc3"/><rect x="7" y="18" width="3" height="5" fill="#cbb18d"/><rect x="22" y="18" width="3" height="5" fill="#cbb18d"/><rect x="10" y="4" width="12" height="2" fill="#41483d"/><rect x="8" y="6" width="16" height="9" fill="#41483d"/><rect x="10" y="15" width="12" height="2" fill="#41483d"/><rect x="10" y="7" width="12" height="8" fill="#cbb18d"/><rect x="11" y="8" width="10" height="6" fill="#e7dbc3"/><rect x="12" y="10" width="2" height="3" fill="#41483d"/><rect x="19" y="10" width="2" height="3" fill="#41483d"/><rect x="12" y="10" width="1" height="1" fill="#fff5d7"/><rect x="19" y="10" width="1" height="1" fill="#fff5d7"/><rect x="15" y="14" width="3" height="1" fill="#69725b"/><rect x="10" y="13" width="2" height="1" fill="#cbb18d"/><rect x="21" y="13" width="2" height="1" fill="#cbb18d"/><rect x="9" y="5" width="14" height="3" fill="#69725b"/><rect x="10" y="3" width="12" height="3" fill="#7d9661"/><rect x="8" y="8" width="3" height="2" fill="#69725b"/><rect x="19" y="6" width="4" height="4" fill="#69725b"/><rect x="26" y="9" width="3" height="14" fill="#41483d"/><rect x="27" y="10" width="1" height="10" fill="#e7dbc3"/><rect x="24" y="22" width="7" height="2" fill="#c5a15e"/><rect x="27" y="24" width="2" height="4" fill="#41483d"/><rect x="6" y="23" width="6" height="2" fill="#69725b"/><rect x="24" y="8" width="7" height="5" fill="#41483d"/><rect x="25" y="9" width="5" height="3" fill="#c5a15e"/><rect x="12" y="17" width="8" height="3" fill="#a7b686"/></g><g transform="translate(160 0)"><rect x="10" y="24" width="5" height="4" fill="#41483d"/><rect x="18" y="26" width="5" height="4" fill="#41483d"/><rect x="8" y="15" width="16" height="11" fill="#41483d"/><rect x="7" y="17" width="18" height="6" fill="#41483d"/><rect x="10" y="16" width="12" height="8" fill="#69725b"/><rect x="11" y="16" width="10" height="5" fill="#7d9661"/><rect x="10" y="23" width="12" height="2" fill="#c5a15e"/><rect x="14" y="19" width="5" height="3" fill="#e7dbc3"/><rect x="7" y="17" width="3" height="5" fill="#cbb18d"/><rect x="22" y="17" width="3" height="5" fill="#cbb18d"/><rect x="10" y="3" width="12" height="2" fill="#41483d"/><rect x="8" y="5" width="16" height="9" fill="#41483d"/><rect x="10" y="14" width="12" height="2" fill="#41483d"/><rect x="10" y="6" width="12" height="8" fill="#cbb18d"/><rect x="11" y="7" width="10" height="6" fill="#e7dbc3"/><rect x="12" y="9" width="2" height="3" fill="#41483d"/><rect x="19" y="9" width="2" height="3" fill="#41483d"/><rect x="12" y="9" width="1" height="1" fill="#fff5d7"/><rect x="19" y="9" width="1" height="1" fill="#fff5d7"/><rect x="15" y="13" width="3" height="1" fill="#69725b"/><rect x="10" y="12" width="2" height="1" fill="#cbb18d"/><rect x="21" y="12" width="2" height="1" fill="#cbb18d"/><rect x="9" y="4" width="14" height="3" fill="#69725b"/><rect x="10" y="2" width="12" height="3" fill="#7d9661"/><rect x="8" y="7" width="3" height="2" fill="#69725b"/><rect x="19" y="5" width="4" height="4" fill="#69725b"/><rect x="26" y="8" width="3" height="14" fill="#41483d"/><rect x="27" y="9" width="1" height="10" fill="#e7dbc3"/><rect x="24" y="21" width="7" height="2" fill="#c5a15e"/><rect x="27" y="23" width="2" height="4" fill="#41483d"/><rect x="6" y="22" width="6" height="2" fill="#69725b"/><rect x="24" y="7" width="7" height="5" fill="#41483d"/><rect x="25" y="8" width="5" height="3" fill="#c5a15e"/><rect x="12" y="16" width="8" height="3" fill="#a7b686"/></g></svg>
