<svg xmlns="http://www.w3.org/2000/svg" width="192" height="32" viewBox="0 0 192 32" shape-rendering="crispEdges"><g transform="translate(0 0)"><rect x="13" y="1" width="5" height="4" fill="#354b69"/><rect x="10" y="5" width="12" height="5" fill="#354b69"/><rect x="6" y="10" width="20" height="3" fill="#354b69"/><rect x="14" y="2" width="3" height="3" fill="#78b7d4"/><rect x="11" y="6" width="10" height="4" fill="#659fbb"/><rect x="8" y="11" width="16" height="1" fill="#c4e8ea"/><rect x="10" y="13" width="13" height="7" fill="#354b69"/><rect x="11" y="14" width="11" height="4" fill="#f0dfbe"/><rect x="13" y="15" width="2" height="2" fill="#354b69"/><rect x="19" y="15" width="2" height="2" fill="#354b69"/><rect x="13" y="18" width="7" height="4" fill="#eaf6ee"/><rect x="9" y="20" width="15" height="8" fill="#354b69"/><rect x="7" y="27" width="19" height="3" fill="#354b69"/><rect x="10" y="21" width="13" height="7" fill="#659fbb"/><rect x="14" y="22" width="4" height="5" fill="#a9d4ce"/><rect x="27" y="11" width="2" height="18" fill="#597786"/><rect x="25" y="6" width="6" height="6" fill="#354b69"/><rect x="26" y="7" width="4" height="4" fill="#a9e2e2"/><rect x="27" y="8" width="2" height="2" fill="#f5ffef"/><rect x="12" y="8" width="2" height="2" fill="#f5ffef"/></g><g transform="translate(32 0)"><rect x="13" y="0" width="5" height="4" fill="#354b69"/><rect x="10" y="4" width="12" height="5" fill="#354b69"/><rect x="6" y="9" width="20" height="3" fill="#354b69"/><rect x="14" y="1" width="3" height="3" fill="#78b7d4"/><rect x="11" y="5" width="10" height="4" fill="#659fbb"/><rect x="8" y="10" width="16" height="1" fill="#c4e8ea"/><rect x="10" y="12" width="13" height="7" fill="#354b69"/><rect x="11" y="13" width="11" height="4" fill="#f0dfbe"/><rect x="13" y="14" width="2" height="2" fill="#354b69"/><rect x="19" y="14" width="2" height="2" fill="#354b69"/><rect x="13" y="17" width="7" height="4" fill="#eaf6ee"/><rect x="9" y="19" width="15" height="8" fill="#354b69"/><rect x="7" y="26" width="19" height="3" fill="#354b69"/><rect x="10" y="20" width="13" height="7" fill="#659fbb"/><rect x="14" y="21" width="4" height="5" fill="#a9d4ce"/><rect x="27" y="10" width="2" height="18" fill="#597786"/><rect x="25" y="5" width="6" height="6" fill="#354b69"/><rect x="26" y="6" width="4" height="4" fill="#a9e2e2"/><rect x="27" y="7" width="2" height="2" fill="#f5ffef"/><rect x="12" y="7" width="2" height="2" fill="#f5ffef"/></g><g transform="translate(64 0)"><rect x="13" y="1" width="5" height="4" fill="#354b69"/><rect x="10" y="5" width="12" height="5" fill="#354b69"/><rect x="6" y="10" width="20" height="3" fill="#354b69"/><rect x="14" y="2" width="3" height="3" fill="#78b7d4"/><rect x="11" y="6" width="10" height="4" fill="#659fbb"/><rect x="8" y="11" width="16" height="1" fill="#c4e8ea"/><rect x="10" y="13" width="13" height="7" fill="#354b69"/><rect x="11" y="14" width="11" height="4" fill="#f0dfbe"/><rect x="13" y="15" width="2" height="2" fill="#354b69"/><rect x="19" y="15" width="2" height="2" fill="#354b69"/><rect x="13" y="18" width="7" height="4" fill="#eaf6ee"/><rect x="9" y="20" width="15" height="8" fill="#354b69"/><rect x="7" y="27" width="19" height="3" fill="#354b69"/><rect x="10" y="21" width="13" height="7" fill="#659fbb"/><rect x="14" y="22" width="4" height="5" fill="#a9d4ce"/><rect x="27" y="11" width="2" height="18" fill="#597786"/><rect x="25" y="6" width="6" height="6" fill="#354b69"/><rect x="26" y="7" width="4" height="4" fill="#a9e2e2"/><rect x="27" y="8" width="2" height="2" fill="#f5ffef"/><rect x="12" y="8" width="2" height="2" fill="#f5ffef"/></g><g transform="translate(96 0)"><rect x="13" y="2" width="5" height="4" fill="#354b69"/><rect x="10" y="6" width="12" height="5" fill="#354b69"/><rect x="6" y="11" width="20" height="3" fill="#354b69"/><rect x="14" y="3" width="3" height="3" fill="#78b7d4"/><rect x="11" y="7" width="10" height="4" fill="#659fbb"/><rect x="8" y="12" width="16" height="1" fill="#c4e8ea"/><rect x="10" y="14" width="13" height="7" fill="#354b69"/><rect x="11" y="15" width="11" height="4" fill="#f0dfbe"/><rect x="13" y="16" width="2" height="2" fill="#354b69"/><rect x="19" y="16" width="2" height="2" fill="#354b69"/><rect x="13" y="19" width="7" height="4" fill="#eaf6ee"/><rect x="9" y="21" width="15" height="8" fill="#354b69"/><rect x="7" y="28" width="19" height="3" fill="#354b69"/><rect x="10" y="22" width="13" height="7" fill="#659fbb"/><rect x="14" y="23" width="4" height="5" fill="#a9d4ce"/><rect x="27" y="12" width="2" height="18" fill="#597786"/><rect x="25" y="7" width="6" height="6" fill="#354b69"/><rect x="26" y="8" width="4" height="4" fill="#a9e2e2"/><rect x="27" y="9" width="2" height="2" fill="#f5ffef"/><rect x="12" y="9" width="2" height="2" fill="#f5ffef"/></g><g transform="translate(128 0)"><rect x="13" y="1" width="5" height="4" fill="#354b69"/><rect x="10" y="5" width="12" height="5" fill="#354b69"/><rect x="6" y="10" width="20" height="3" fill="#354b69"/><rect x="14" y="2" width="3" height="3" fill="#78b7d4"/><rect x="11" y="6" width="10" height="4" fill="#659fbb"/><rect x="8" y="11" width="16" height="1" fill="#c4e8ea"/><rect x="10" y="13" width="13" height="7" fill="#354b69"/><rect x="11" y="14" width="11" height="4" fill="#f0dfbe"/><rect x="13" y="15" width="2" height="2" fill="#354b69"/><rect x="19" y="15" width="2" height="2" fill="#354b69"/><rect x="13" y="18" width="7" height="4" fill="#eaf6ee"/><rect x="9" y="20" width="15" height="8" fill="#354b69"/><rect x="7" y="27" width="19" height="3" fill="#354b69"/><rect x="10" y="21" width="13" height="7" fill="#659fbb"/><rect x="14" y="22" width="4" height="5" fill="#a9d4ce"/><rect x="27" y="11" width="2" height="18" fill="#597786"/><rect x="25" y="6" width="6" height="6" fill="#354b69"/><rect x="26" y="7" width="4" height="4" fill="#a9e2e2"/><rect x="27" y="8" width="2" height="2" fill="#f5ffef"/><rect x="12" y="8" width="2" height="2" fill="#f5ffef"/></g><g transform="translate(160 0)"><rect x="13" y="0" width="5" height="4" fill="#354b69"/><rect x="10" y="4" width="12" height="5" fill="#354b69"/><rect x="6" y="9" width="20" height="3" fill="#354b69"/><rect x="14" y="1" width="3" height="3" fill="#78b7d4"/><rect x="11" y="5" width="10" height="4" fill="#659fbb"/><rect x="8" y="10" width="16" height="1" fill="#c4e8ea"/><rect x="10" y="12" width="13" height="7" fill="#354b69"/><rect x="11" y="13" width="11" height="4" fill="#f0dfbe"/><rect x="13" y="14" width="2" height="2" fill="#354b69"/><rect x="19" y="14" width="2" height="2" fill="#354b69"/><rect x="13" y="17" width="7" height="4" fill="#eaf6ee"/><rect x="9" y="19" width="15" height="8" fill="#354b69"/><rect x="7" y="26" width="19" height="3" fill="#354b69"/><rect x="10" y="20" width="13" height="7" fill="#659fbb"/><rect x="14" y="21" width="4" height="5" fill="#a9d4ce"/><rect x="27" y="10" width="2" height="18" fill="#597786"/><rect x="25" y="5" width="6" height="6" fill="#354b69"/><rect x="26" y="6" width="4" height="4" fill="#a9e2e2"/><rect x="27" y="7" width="2" height="2" fill="#f5ffef"/><rect x="12" y="7" width="2" height="2" fill="#f5ffef"/></g></svg>
